<svg xmlns="http://www.w3.org/2000/svg" viewBox="0 0 40 40" width="40" height="40" fill="none">
  <title>AnniCal</title>
  <rect width="40" height="40" rx="5" fill="#faf7f0" />
  <path d="M7 3h19l8 8v24a2 2 0 0 1-2 2H7a2 2 0 0 1-2-2V5a2 2 0 0 1 2-2Z" fill="#8b2c2c" />
  <path d="M26 3v8h8" stroke="#e8dfca" stroke-width="1.3" stroke-linejoin="round" />
  <path d="m11.5 29 7-17h2.4l7 17h-5.1l-2-5.2h-6.2l-2 5.2h-1.1Zm3.8-6.8h4.9l-2.4-6.3-2.5 6.3Z" fill="#fdfcf9" fill-rule="evenodd" />
  <path d="M9.5 29h6m5.5 0h8" stroke="#fdfcf9" stroke-width="1.3" stroke-linecap="square" />
</svg>
